<svg width="37" height="29" viewBox="0 0 37 29" fill="none" xmlns="http://www.w3.org/2000/svg">
<path d="M0 14.5C0 6.49187 6.49129 0 14.4987 0H21.6113C29.6187 0 36.11 6.49187 36.11 14.5V14.5C36.11 22.5081 29.6187 29 21.6113 29H14.4987C6.49129 29 0 22.5081 0 14.5V14.5Z" fill="#ED6A5A"/>
<path d="M23.0085 16.9229C22.6116 16.9229 22.3957 16.7011 22.3607 16.2575L21.853 9.81408C21.8296 9.45222 21.923 9.14872 22.1331 8.90359C22.3548 8.65845 22.6408 8.53589 22.991 8.53589C23.3411 8.53589 23.6271 8.65845 23.8489 8.90359C24.0706 9.14872 24.164 9.45222 24.129 9.81408L23.6388 16.2575C23.6037 16.7011 23.3937 16.9229 23.0085 16.9229ZM22.8859 20.7925C22.5474 20.7925 22.2848 20.7049 22.0981 20.5299C21.923 20.3431 21.8354 20.0804 21.8354 19.7419V19.4443C21.8354 19.1058 21.923 18.8489 22.0981 18.6739C22.2848 18.4871 22.5474 18.3937 22.8859 18.3937H23.1135C23.452 18.3937 23.7088 18.4871 23.8839 18.6739C24.0706 18.8489 24.164 19.1058 24.164 19.4443V19.7419C24.164 20.0804 24.0706 20.3431 23.8839 20.5299C23.7088 20.7049 23.452 20.7925 23.1135 20.7925H22.8859Z" fill="white"/>
<path d="M18.3409 16.9229C17.944 16.9229 17.7281 16.7011 17.6931 16.2575L17.1854 9.81408C17.162 9.45222 17.2554 9.14872 17.4655 8.90359C17.6872 8.65845 17.9732 8.53589 18.3234 8.53589C18.6735 8.53589 18.9595 8.65845 19.1813 8.90359C19.403 9.14872 19.4964 9.45222 19.4614 9.81408L18.9712 16.2575C18.9361 16.7011 18.726 16.9229 18.3409 16.9229ZM18.2183 20.7925C17.8798 20.7925 17.6172 20.7049 17.4305 20.5299C17.2554 20.3431 17.1678 20.0804 17.1678 19.7419V19.4443C17.1678 19.1058 17.2554 18.8489 17.4305 18.6739C17.6172 18.4871 17.8798 18.3937 18.2183 18.3937H18.4459C18.7844 18.3937 19.0412 18.4871 19.2163 18.6739C19.403 18.8489 19.4964 19.1058 19.4964 19.4443V19.7419C19.4964 20.0804 19.403 20.3431 19.2163 20.5299C19.0412 20.7049 18.7844 20.7925 18.4459 20.7925H18.2183Z" fill="white"/>
<path d="M13.6733 16.9229C13.2764 16.9229 13.0605 16.7011 13.0255 16.2575L12.5178 9.81408C12.4944 9.45222 12.5878 9.14872 12.7979 8.90359C13.0196 8.65845 13.3056 8.53589 13.6558 8.53589C14.0059 8.53589 14.2919 8.65845 14.5137 8.90359C14.7354 9.14872 14.8288 9.45222 14.7938 9.81408L14.3036 16.2575C14.2685 16.7011 14.0584 16.9229 13.6733 16.9229ZM13.5507 20.7925C13.2122 20.7925 12.9496 20.7049 12.7629 20.5299C12.5878 20.3431 12.5002 20.0804 12.5002 19.7419V19.4443C12.5002 19.1058 12.5878 18.8489 12.7629 18.6739C12.9496 18.4871 13.2122 18.3937 13.5507 18.3937H13.7783C14.1168 18.3937 14.3736 18.4871 14.5487 18.6739C14.7354 18.8489 14.8288 19.1058 14.8288 19.4443V19.7419C14.8288 20.0804 14.7354 20.3431 14.5487 20.5299C14.3736 20.7049 14.1168 20.7925 13.7783 20.7925H13.5507Z" fill="white"/>
</svg>
