<svg width="37" height="29" viewBox="0 0 37 29" fill="none" xmlns="http://www.w3.org/2000/svg">
<path d="M0 14.5C0 6.49187 6.49187 0 14.5 0H21.6132C29.6213 0 36.1132 6.49187 36.1132 14.5V14.5C36.1132 22.5081 29.6213 29 21.6132 29H14.5C6.49187 29 0 22.5081 0 14.5V14.5Z" fill="#61C9A8"/>
<path d="M18.3424 18.0171C17.9456 18.0171 17.7296 17.7954 17.6946 17.3518L17.1868 10.9083C17.1635 10.5465 17.2569 10.243 17.467 9.99783C17.6888 9.75269 17.9747 9.63013 18.3249 9.63013C18.6751 9.63013 18.9611 9.75269 19.1829 9.99783C19.4047 10.243 19.4981 10.5465 19.463 10.9083L18.9728 17.3518C18.9378 17.7954 18.7277 18.0171 18.3424 18.0171ZM18.2199 21.8867C17.8814 21.8867 17.6187 21.7992 17.432 21.6241C17.2569 21.4373 17.1693 21.1747 17.1693 20.8362V20.5385C17.1693 20.2 17.2569 19.9432 17.432 19.7681C17.6187 19.5813 17.8814 19.4879 18.2199 19.4879H18.4475C18.786 19.4879 19.0428 19.5813 19.2179 19.7681C19.4047 19.9432 19.4981 20.2 19.4981 20.5385V20.8362C19.4981 21.1747 19.4047 21.4373 19.2179 21.6241C19.0428 21.7992 18.786 21.8867 18.4475 21.8867H18.2199Z" fill="white"/>
</svg>
