<svg width="37" height="29" viewBox="0 0 37 29" fill="none" xmlns="http://www.w3.org/2000/svg">
<path d="M0 14.5C0 6.49187 6.49129 0 14.4987 0H21.6113C29.6187 0 36.11 6.49187 36.11 14.5V14.5C36.11 22.5081 29.6187 29 21.6113 29H14.4987C6.49129 29 0 22.5081 0 14.5V14.5Z" fill="#788BFF"/>
<path d="M20.6746 16.9229C20.2778 16.9229 20.0618 16.7011 20.0268 16.2575L19.5191 9.81408C19.4958 9.45222 19.5891 9.14872 19.7992 8.90359C20.021 8.65845 20.3069 8.53589 20.6571 8.53589C21.0073 8.53589 21.2932 8.65845 21.515 8.90359C21.7368 9.14872 21.8301 9.45222 21.7951 9.81408L21.3049 16.2575C21.2699 16.7011 21.0598 16.9229 20.6746 16.9229ZM20.5521 20.7925C20.2136 20.7925 19.951 20.7049 19.7642 20.5299C19.5891 20.3431 19.5016 20.0804 19.5016 19.7419V19.4443C19.5016 19.1058 19.5891 18.8489 19.7642 18.6739C19.951 18.4871 20.2136 18.3937 20.5521 18.3937H20.7797C21.1181 18.3937 21.3749 18.4871 21.55 18.6739C21.7368 18.8489 21.8301 19.1058 21.8301 19.4443V19.7419C21.8301 20.0804 21.7368 20.3431 21.55 20.5299C21.3749 20.7049 21.1181 20.7925 20.7797 20.7925H20.5521Z" fill="white"/>
<path d="M16.007 16.9229C15.6102 16.9229 15.3942 16.7011 15.3592 16.2575L14.8515 9.81408C14.8281 9.45222 14.9215 9.14872 15.1316 8.90359C15.3534 8.65845 15.6393 8.53589 15.9895 8.53589C16.3397 8.53589 16.6256 8.65845 16.8474 8.90359C17.0692 9.14872 17.1625 9.45222 17.1275 9.81408L16.6373 16.2575C16.6023 16.7011 16.3922 16.9229 16.007 16.9229ZM15.8845 20.7925C15.546 20.7925 15.2834 20.7049 15.0966 20.5299C14.9215 20.3431 14.834 20.0804 14.834 19.7419V19.4443C14.834 19.1058 14.9215 18.8489 15.0966 18.6739C15.2834 18.4871 15.546 18.3937 15.8845 18.3937H16.1121C16.4505 18.3937 16.7073 18.4871 16.8824 18.6739C17.0692 18.8489 17.1625 19.1058 17.1625 19.4443V19.7419C17.1625 20.0804 17.0692 20.3431 16.8824 20.5299C16.7073 20.7049 16.4505 20.7925 16.1121 20.7925H15.8845Z" fill="white"/>
</svg>
